<svg id="Layer_1" height="512" viewBox="0 0 512 512" width="512" xmlns="http://www.w3.org/2000/svg" data-name="Layer 1"><path d="m64.628 115.941h176.059a6 6 0 0 0 6-6v-29.341a6 6 0 0 0 -6-6h-82.03v-24.151a20.671 20.671 0 1 0 -12 0v24.151h-82.029a6 6 0 0 0 -6 6v29.343a6 6 0 0 0 6 5.998zm79.358-85.27a8.672 8.672 0 1 1 8.671 8.672 8.681 8.681 0 0 1 -8.671-8.672zm-73.358 55.929h164.059v17.343h-164.059z"/><path d="m486.5 197.119h-122.72a6 6 0 0 0 0 12h122.72a6 6 0 0 0 0-12z"/><path d="m388.232 189.556h73.812a6 6 0 0 0 0-12h-30.906v-30.493a6 6 0 0 0 -12 0v30.493h-30.906a6 6 0 0 0 0 12z"/><path d="m283.575 430.145h58.686a6 6 0 0 0 6-6v-29.345a6 6 0 0 0 -6-6h-58.686a6 6 0 0 0 -6 6v29.344a6 6 0 0 0 6 6.001zm6-29.344h46.686v17.344h-46.686z"/><path d="m198.305 430.145h58.687a6 6 0 0 0 6-6v-29.345a6 6 0 0 0 -6-6h-58.687a6 6 0 0 0 -6 6v29.344a6 6 0 0 0 6 6.001zm6-29.344h46.687v17.344h-46.687z"/><path d="m64.628 252.876h176.059a6 6 0 0 0 5.687-4.088l39.125-116.4a6 6 0 0 0 -5.688-7.912h-254.311a6 6 0 0 0 -5.687 7.912l39.124 116.4a6 6 0 0 0 5.691 4.088zm206.837-116.4-35.091 104.4h-27.719l17.545-104.4zm-112.808 0h55.375l-17.545 104.4h-37.83zm-12 0v104.4h-37.829l-17.546-104.4zm-67.543 0 17.545 104.4h-27.718l-35.091-104.395z"/><path d="m486.5 216.681h-122.72a6 6 0 0 0 -6 6v144.6h-174.993v-64.522h67.681a6 6 0 0 0 6-6v-29.342a6 6 0 0 0 -6-6h-195.621a6 6 0 0 0 -6 6v29.342a6 6 0 0 0 6 6h67.681v193.241a6 6 0 0 0 6 6h357.972a6 6 0 0 0 6-6v-273.319a6 6 0 0 0 -6-6zm-315.71 80.078v193.241h-36.262v-193.241a6 6 0 0 0 -6-6h-67.681v-17.342h183.621v17.342h-67.681a6 6 0 0 0 -6 6zm186.99 193.241h-174.993v-110.717h174.993zm30.679 0h-18.679v-261.319h18.679zm30.679 0h-18.679v-261.319h18.679zm30.679 0h-18.679v-261.319h18.679zm30.68 0h-18.68v-261.319h18.683z"/></svg>