<svg id="Capa_1" enable-background="new 0 0 354.053 354.053" height="512" viewBox="0 0 354.053 354.053" width="512" xmlns="http://www.w3.org/2000/svg"><path d="m159.324 171.126h-35.405c-3.263 0-5.901 2.638-5.901 5.901v47.207c0 3.263 2.638 5.901 5.901 5.901h35.405c3.263 0 5.901-2.638 5.901-5.901v-47.207c0-3.264-2.638-5.901-5.901-5.901zm-5.901 47.207h-23.604v-35.405h23.604z"/><path d="m230.134 171.126h-35.405c-3.263 0-5.901 2.638-5.901 5.901v47.207c0 3.263 2.638 5.901 5.901 5.901h35.405c3.263 0 5.901-2.638 5.901-5.901v-47.207c0-3.264-2.638-5.901-5.901-5.901zm-5.901 47.207h-23.603v-35.405h23.604v35.405z"/><path d="m23.604 230.134h11.802v35.405h-11.802z"/><path d="m59.009 230.134h11.802v35.405h-11.802z"/><path d="m348.152 171.126h-17.703c-3.263 0-5.901 2.638-5.901 5.901v17.703h-5.901v-17.703c0-3.263-2.638-5.901-5.901-5.901h-17.703c-3.263 0-5.901 2.638-5.901 5.901v17.703h-5.901v-17.703c0-3.263-2.638-5.901-5.901-5.901h-11.8v-35.406-29.504h-11.802v23.604h-11.802v-11.802c0-2.236-1.263-4.278-3.263-5.281l-8.539-4.266v-53.97l11.182-22.358-.053-.03c.395-.791.673-1.658.673-2.608v-23.604c0-3.263-2.638-5.901-5.901-5.901h-23.604c-3.263 0-5.901 2.638-5.901 5.901v17.703h-11.802v-17.703c0-3.263-2.638-5.901-5.901-5.901h-23.604c-3.263 0-5.901 2.638-5.901 5.901v17.703h-11.802v-17.703c0-3.263-2.638-5.901-5.901-5.901h-23.604c-3.263 0-5.901 2.638-5.901 5.901v23.604c0 .95.277 1.817.679 2.614l-.053.03 11.176 22.353v53.969l-8.539 4.272c-2 .997-3.263 3.039-3.263 5.275v11.802h-11.802v-23.604h-11.799v29.504 35.405h-11.802c-3.263 0-5.901 2.638-5.901 5.901v17.703h-5.9v-17.703c0-3.263-2.638-5.901-5.901-5.901h-17.703c-3.263 0-5.901 2.638-5.901 5.901v17.703h-5.901v-17.703c0-3.263-2.638-5.901-5.901-5.901h-17.702c-3.263 0-5.901 2.638-5.901 5.901v171.126c0 3.263 2.638 5.901 5.901 5.901h88.513 165.225 88.513c3.263 0 5.901-2.638 5.901-5.901v-171.126c0-3.263-2.638-5.9-5.901-5.9zm-156.686-58.39-11.802-5.901c-1.658-.832-3.617-.832-5.281 0l-11.802 5.901c-1.994 1.003-3.257 3.045-3.257 5.281v11.802h-11.802v-11.802c0-2.236-1.263-4.278-3.263-5.281l-8.539-4.266v-49.461h82.612v49.461l-8.539 4.272c-2 .997-3.263 3.039-3.263 5.275v11.802h-11.802v-11.802c.001-2.236-1.262-4.278-3.262-5.281zm26.867-100.934h11.802v11.802h-11.802zm-47.207 0h11.802v11.802h-11.802zm55.362 23.603-5.901 11.802h-87.121l-5.901-11.802zm-102.57-23.603h11.802v11.802h-11.802zm-112.116 171.125h5.901v17.703c0 3.263 2.638 5.901 5.901 5.901h17.703c3.263 0 5.901-2.638 5.901-5.901v-17.703h5.901v17.703c0 3.263 2.638 5.901 5.901 5.901h17.703c3.263 0 5.901-2.638 5.901-5.901v-17.703h5.901v159.324h-76.713zm194.729 159.324h-23.604v-82.016c13.448 2.744 23.604 14.658 23.604 28.908zm-35.405 0h-23.604v-53.108c0-14.245 10.155-26.164 23.604-28.908zm82.612 0h-35.405v-53.108c0-22.771-18.535-41.306-41.306-41.306s-41.306 18.535-41.306 41.306v53.108h-35.405v-200.63h17.703c3.263 0 5.901-2.638 5.901-5.901v-14.056l5.901-2.95 5.901 2.95v14.056c0 3.263 2.638 5.901 5.901 5.901h23.604c3.263 0 5.901-2.638 5.901-5.901v-14.056l5.901-2.95 5.901 2.95v14.056c0 3.263 2.638 5.901 5.901 5.901h23.604c3.263 0 5.901-2.638 5.901-5.901v-14.056l5.901-2.95 5.901 2.95v14.056c0 3.263 2.638 5.901 5.901 5.901h17.703v200.63zm88.513 0h-76.711v-159.324h5.901v17.703c0 3.263 2.638 5.901 5.901 5.901h17.703c3.263 0 5.901-2.638 5.901-5.901v-17.703h5.901v17.703c0 3.263 2.638 5.901 5.901 5.901h17.703c3.263 0 5.901-2.638 5.901-5.901v-17.703h5.901v159.324z"/><path d="m318.647 230.134h11.802v35.405h-11.802z"/><path d="m283.242 230.134h11.802v35.405h-11.802z"/><path d="m147.522 76.711h11.802v11.802h-11.802z"/><path d="m171.126 76.711h11.802v11.802h-11.802z"/><path d="m194.729 76.711h11.802v11.802h-11.802z"/><path d="m159.324 295.044h5.901v11.802h-5.901z"/><path d="m188.828 295.044h5.901v11.802h-5.901z"/></svg>