<svg height="512" viewBox="0 0 512 512" width="512" xmlns="http://www.w3.org/2000/svg"><g><path d="m477.22 143.9a245.492 245.492 0 0 0 -116.83-112.87 8 8 0 0 0 -10.62 3.89l-60.62 130.63a8.012 8.012 0 0 0 3.9 10.63 87.988 87.988 0 0 1 49.23 97.14 8.008 8.008 0 0 0 6.27 9.43l141.18 28.36a7.984 7.984 0 0 0 9.42-6.26 245.4 245.4 0 0 0 -21.93-160.95zm7.7 149.92-125.67-25.24a104.094 104.094 0 0 0 -52.34-103.29l53.95-116.26a232.124 232.124 0 0 1 124.06 244.79z"/><path d="m169 279.33a7.969 7.969 0 0 0 1.18-6.01 88.02 88.02 0 0 1 49.23-97.14 8.012 8.012 0 0 0 3.9-10.63l-60.62-130.63a8 8 0 0 0 -10.62-3.89 248.07 248.07 0 0 0 -138.76 273.82 8.01 8.01 0 0 0 7.84 6.42 7.772 7.772 0 0 0 1.58-.16l141.19-28.36a7.984 7.984 0 0 0 5.08-3.42zm-15.79-10.75-125.66 25.24a232.1 232.1 0 0 1 124.05-244.79l53.95 116.26a104.138 104.138 0 0 0 -52.34 103.29z"/><path d="m410.81 439.58-89.12-113.12a7.927 7.927 0 0 0 -5.34-2.99 8.029 8.029 0 0 0 -5.9 1.66 87.994 87.994 0 0 1 -108.9 0 8.029 8.029 0 0 0 -5.9-1.66 7.927 7.927 0 0 0 -5.34 2.99l-89.12 113.12a8 8 0 0 0 1.32 11.23 248.057 248.057 0 0 0 306.98 0 8 8 0 0 0 1.32-11.23zm-154.81 48.42a229.48 229.48 0 0 1 -137.22-44.9l79.32-100.68a104.137 104.137 0 0 0 115.8 0l79.32 100.68a229.48 229.48 0 0 1 -137.22 44.9z"/><path d="m208 256a48 48 0 1 0 48-48 48.053 48.053 0 0 0 -48 48zm48-32a32 32 0 1 1 -32 32 32.036 32.036 0 0 1 32-32z"/></g></svg>