<svg height="512pt" viewBox="0 -37 512 512" width="512pt" xmlns="http://www.w3.org/2000/svg"><path d="m398.175781 292.089844h-4.1875c-4.140625 0-7.5 3.355468-7.5 7.5 0 4.140625 3.359375 7.5 7.5 7.5h4.1875c4.140625 0 7.5-3.359375 7.5-7.5 0-4.144532-3.359375-7.5-7.5-7.5zm0 0"/><path d="m393 363.023438c-12.945312 0-23.476562 10.53125-23.476562 23.476562 0 12.941406 10.53125 23.472656 23.476562 23.472656s23.476562-10.53125 23.476562-23.472656c0-12.945312-10.53125-23.476562-23.476562-23.476562zm0 31.949218c-4.671875 0-8.476562-3.800781-8.476562-8.472656s3.804687-8.476562 8.476562-8.476562 8.476562 3.804687 8.476562 8.476562-3.804687 8.472656-8.476562 8.472656zm0 0"/><path d="m80 363.023438c-12.945312 0-23.476562 10.53125-23.476562 23.476562 0 12.941406 10.53125 23.472656 23.476562 23.472656s23.476562-10.527344 23.476562-23.472656-10.53125-23.476562-23.476562-23.476562zm0 31.949218c-4.671875 0-8.476562-3.800781-8.476562-8.472656s3.804687-8.476562 8.476562-8.476562 8.476562 3.804687 8.476562 8.476562-3.804687 8.472656-8.476562 8.472656zm0 0"/><path d="m504.5 337.605469c4.140625 0 7.5-3.359375 7.5-7.5v-30c0-4.144531-3.359375-7.5-7.5-7.5h-6.039062v-11.476563c0-6.40625-5.214844-11.621094-11.621094-11.621094h-49.855469v-2.257812c0-4.144531-3.359375-7.5-7.5-7.5s-7.5 3.355469-7.5 7.5v2.257812h-83.808594v-66.527343h83.808594v31.269531c0 4.140625 3.359375 7.5 7.5 7.5s7.5-3.359375 7.5-7.5v-31.269531h13.691406c4.144531 0 7.5-3.355469 7.5-7.5v-30c0-4.144531-3.355469-7.5-7.5-7.5h-120c-4.140625 0-7.5 3.355469-7.5 7.5v111.527343c0 .070313.003907.140626.003907.207032v34.246094h-66.007813v-150.152344c16.675781-10.175782 116.308594-70.960938 131.875-80.457032 1.097656-.671874 1.964844-1.582031 2.570313-2.621093l39.84375-63.695313c4.175781-6.6875-1.148438-15.246094-8.96875-14.488281l-74.339844 7.164063c-1.183594.085937-2.34375.449218-3.375 1.078124l-29.875 18.226563c-3.535156 2.15625-4.652344 6.769531-2.496094 10.308594 2.160156 3.535156 6.773438 4.652343 10.3125 2.496093 3.089844-1.886718 17.890625-10.917968 23.46875-14.320312l28.644531 46.953125-277.441406 169.265625-.414063-.679688c-.003906-.003906-.003906-.007812-.007812-.011718l-17.085938-28.007813-11.140624-18.253906 17.808593-10.863281c.007813-.003906.015625-.011719.019531-.015625l59.652344-36.390625c.007813-.003906.015625-.007813.019532-.011719l149.15625-91c3.539062-2.15625 4.65625-6.773437 2.496093-10.308594-2.15625-3.535156-6.769531-4.652343-10.308593-2.496093l-147.035157 89.707031-39.496093-3.839844c-3.191407-.304687-6.457032.441406-9.191407 2.113281l-20.769531 12.667969c-7.007812 4.277344-9.230469 13.460937-4.953125 20.46875l6.21875 10.195313-12.707031 7.75c-5.121094 3.125-7.34375 9.027343-6.164063 14.410156l-22.394531 13.664062c-3.535156 2.15625-4.652344 6.769532-2.496094 10.308594l27.394532 44.902344c2.160156 3.542968 6.78125 4.648437 10.3125 2.496094l22.652343-13.820313c4.28125 3.101563 10.183594 3.519531 14.964844.601563l12.707031-7.753907c6.246094 10.113281 6.300782 10.628907 7.757813 12.289063l-27.246094 52.121094h-30.972656c-4.144531 0-7.5 3.355468-7.5 7.5 0 4.144531 3.355469 7.5 7.5 7.5h257.011719v19h-210.472657c-8.980469-7.167969-20.351562-11.460938-32.707031-11.460938s-23.726562 4.292969-32.707031 11.460938h-23.722657v-19h10.265626c4.140624 0 7.5-3.355469 7.5-7.5 0-4.144532-3.359376-7.5-7.5-7.5h-17.765626c-4.140624 0-7.5 3.355468-7.5 7.5v26.949218c-4.996093 1.476563-8.570312 6.4375-8.570312 12.5v19.089844c0 7.265625 5.136719 12.960938 11.691406 12.960938h15.957032c2.03125 27.105468 24.734374 48.539062 52.351562 48.539062s50.320312-21.433594 52.351562-48.539062h208.296876c2.03125 27.105468 24.734374 48.539062 52.351562 48.539062s50.320312-21.433594 52.351562-48.539062h54.957032c6.554687 0 11.691406-5.695313 11.691406-12.960938v-19.089844c0-7.261718-5.136719-12.949218-11.691406-12.949218h-1.847656v-7.855469zm-425.5-181.03125 20.605469-12.597657 19.636719 1.910157-34.078126 20.789062zm-14.109375 94.738281-19.582031-32.097656 15.367187-9.375 12.011719 19.6875 7.570312 12.410156zm296.433594-230.300781 51.496093-4.964844-27.601562 44.128906zm-225.726563 228.328125-6.164062-10.101563 34.09375-20.800781-7.257813 18.289062zm-21.535156 62.121094 24.800781-47.441407c1.550781-.355469 3.054688-.964843 4.453125-1.816406l20.769532-12.671875c2.734374-1.671875 4.894531-4.230469 6.078124-7.210938l14.65625-36.875 57.351563-34.988281v141.003907zm376.898438 11.136718c-.085938 0-.171876.003906-.257813.007813h-8.703125v-15h15v15h-5.78125c-.085938-.003907-.171875-.007813-.257812-.007813zm-149.292969 52.863282h-210.335938c-1.148437-5.347657-3.113281-10.394532-5.757812-15h221.851562c-2.644531 4.605468-4.609375 9.652343-5.757812 15zm-3.492188-202.480469h105v15h-105zm-323.175781 187.480469h19.425781c-2.644531 4.609374-4.609375 9.65625-5.757812 15h-13.667969zm65 63.539062c-20.679688 0-37.5-16.824219-37.5-37.5 0-20.59375 16.738281-37.5 37.5-37.5 20.714844 0 37.5 16.855469 37.5 37.5 0 20.675781-16.820312 37.5-37.5 37.5zm313 0c-20.679688 0-37.5-16.824219-37.5-37.5 0-20.382812 16.570312-37.5 37.5-37.5 20.714844 0 37.5 16.855469 37.5 37.5 0 20.675781-16.820312 37.5-37.5 37.5zm104-48.539062h-52.667969c-1.148437-5.347657-3.113281-10.394532-5.757812-15h58.425781zm-13.539062-30h-57.753907c-8.980469-7.167969-20.351562-11.460938-32.707031-11.460938s-23.726562 4.289062-32.707031 11.460938h-22.113281v-60.949219h145.28125v8.09375h-4.359376c-6.671874 0-12.101562 5.351562-12.101562 11.933593v21.128907c0 6.582031 5.429688 11.9375 12.101562 11.9375h4.359376zm0 0"/></svg>