<?xml version="1.0" encoding="iso-8859-1"?>
<!-- Generator: Adobe Illustrator 19.0.0, SVG Export Plug-In . SVG Version: 6.00 Build 0)  -->
<svg version="1.1" id="Capa_1" xmlns="http://www.w3.org/2000/svg" xmlns:xlink="http://www.w3.org/1999/xlink" x="0px" y="0px"
	 viewBox="0 0 512 512" style="enable-background:new 0 0 512 512;" xml:space="preserve">
<g>
	<g>
		<path d="M265.085,75.99c-25.074-25.073-58.411-38.882-93.87-38.882c-35.459,0-68.795,13.808-93.868,38.882
			c-51.761,51.76-51.761,135.979-0.001,187.738c25.88,25.88,59.875,38.819,93.87,38.819c58.118,0,93.87-38.819,93.87-38.819
			c25.074-25.073,38.883-58.41,38.882-93.87C303.967,134.399,290.158,101.063,265.085,75.99z M252.843,251.486
			c-45.009,45.009-118.245,45.009-163.256,0c-45.01-45.009-45.009-118.245,0.001-163.255c21.803-21.804,50.792-33.812,81.627-33.812
			c30.835,0,59.824,12.007,81.627,33.812c21.803,21.803,33.812,50.792,33.812,81.627
			C286.654,223.667,252.843,251.486,252.843,251.486z"/>
	</g>
</g>
<g>
	<g>
		<path d="M507.515,432.435c-0.001-0.001-0.001-0.001-0.001-0.002L352.053,276.972c-5.985-5.983-15.72-5.985-21.708,0l-3.736,3.736
			l-13.712-13.712c21.347-31.513,31.627-69.466,29.036-107.701c-2.792-41.185-20.424-79.961-49.649-109.186
			c-66.758-66.757-175.379-66.756-242.136,0C17.809,82.446,0,125.444,0,171.176c0,45.733,17.809,88.729,50.148,121.067
			c29.226,29.225,68.002,46.858,109.187,49.649c3.877,0.263,7.75,0.393,11.615,0.393c34.249,0,67.767-10.246,96.087-29.428
			l13.712,13.713l-3.738,3.738c-2.898,2.899-4.495,6.753-4.495,10.853c0.001,4.099,1.597,7.952,4.496,10.851l25.07,25.07
			c0.004,0.004,0.007,0.008,0.01,0.011s0.008,0.007,0.011,0.01l130.37,130.37c2.991,2.991,6.921,4.486,10.851,4.486
			c3.93,0,7.862-1.495,10.855-4.485l53.335-53.336C513.495,448.154,513.495,438.418,507.515,432.435z M274.109,295.447
			c-3.039-3.041-7.843-3.389-11.288-0.826C202.074,339.804,115.906,333.517,62.389,280c-29.068-29.068-45.077-67.715-45.077-108.825
			S33.321,91.417,62.389,62.348c30.003-30.003,69.414-45.004,108.826-45.004c39.411,0,78.824,15.001,108.826,45.005
			c53.517,53.517,59.802,139.683,14.621,200.43c-2.563,3.446-2.213,8.251,0.825,11.287l18.881,18.882l-21.378,21.378
			L274.109,295.447z M290.643,341.159l8.446-8.448c0.007-0.007,0.015-0.013,0.023-0.02l33.619-33.619
			c0.007-0.007,0.013-0.015,0.02-0.022l8.447-8.447l17.572,17.572l-50.556,50.555L290.643,341.159z M443.325,493.841
			L320.456,370.972l50.556-50.555l122.87,122.868L443.325,493.841z"/>
	</g>
</g>
<g>
</g>
<g>
</g>
<g>
</g>
<g>
</g>
<g>
</g>
<g>
</g>
<g>
</g>
<g>
</g>
<g>
</g>
<g>
</g>
<g>
</g>
<g>
</g>
<g>
</g>
<g>
</g>
<g>
</g>
</svg>
