<?xml version="1.0" encoding="iso-8859-1"?>
<svg xmlns="http://www.w3.org/2000/svg" viewBox="0 0 80 80">
    <path d="M 40 7 C 37.052633 7 34.698522 9.1897314 34.203125 12 L 29 12 L 28 12 L 18 12 C 16.346 12 15 13.346 15 15 L 15 71 C 15 72.654 16.346 74 18 74 L 47.865234 74 C 47.466234 73.357 47.105203 72.691 46.783203 72 L 18 72 C 17.449 72 17 71.552 17 71 L 17 15 C 17 14.448 17.449 14 18 14 L 28 14 L 28 17 C 28 18.64497 29.35503 20 31 20 L 49 20 C 50.64497 20 52 18.64497 52 17 L 52 14 L 62 14 C 62.551 14 63 14.448 63 15 L 63 45.050781 C 63.333 45.033781 63.662 45 64 45 C 64.338 45 64.667 45.033781 65 45.050781 L 65 15 C 65 13.346 63.654 12 62 12 L 52 12 L 45.796875 12 C 45.301478 9.1897314 42.947367 7 40 7 z M 40 9 C 42.220375 9 44 10.779625 44 13 L 44 14 L 45 14 L 50 14 L 50 17 C 50 17.56503 49.56503 18 49 18 L 31 18 C 30.43497 18 30 17.56503 30 17 L 30 14 L 36 14 L 36 13 C 36 10.779625 37.779625 9 40 9 z M 40 12 A 1 1 0 0 0 39 13 A 1 1 0 0 0 40 14 A 1 1 0 0 0 41 13 A 1 1 0 0 0 40 12 z M 22 18 A 1 1 0 0 0 21 19 A 1 1 0 0 0 22 20 A 1 1 0 0 0 23 19 A 1 1 0 0 0 22 18 z M 26 18 A 1 1 0 0 0 25 19 A 1 1 0 0 0 26 20 A 1 1 0 0 0 27 19 A 1 1 0 0 0 26 18 z M 54 18 A 1 1 0 0 0 53 19 A 1 1 0 0 0 54 20 A 1 1 0 0 0 55 19 A 1 1 0 0 0 54 18 z M 58 18 A 1 1 0 0 0 57 19 A 1 1 0 0 0 58 20 A 1 1 0 0 0 59 19 A 1 1 0 0 0 58 18 z M 22 22 A 1 1 0 0 0 21 23 A 1 1 0 0 0 22 24 A 1 1 0 0 0 23 23 A 1 1 0 0 0 22 22 z M 58 22 A 1 1 0 0 0 57 23 A 1 1 0 0 0 58 24 A 1 1 0 0 0 59 23 A 1 1 0 0 0 58 22 z M 22 26 A 1 1 0 0 0 21 27 A 1 1 0 0 0 22 28 A 1 1 0 0 0 23 27 A 1 1 0 0 0 22 26 z M 58 26 A 1 1 0 0 0 57 27 A 1 1 0 0 0 58 28 A 1 1 0 0 0 59 27 A 1 1 0 0 0 58 26 z M 22 30 A 1 1 0 0 0 21 31 A 1 1 0 0 0 22 32 A 1 1 0 0 0 23 31 A 1 1 0 0 0 22 30 z M 58 30 A 1 1 0 0 0 57 31 A 1 1 0 0 0 58 32 A 1 1 0 0 0 59 31 A 1 1 0 0 0 58 30 z M 22 34 A 1 1 0 0 0 21 35 A 1 1 0 0 0 22 36 A 1 1 0 0 0 23 35 A 1 1 0 0 0 22 34 z M 58 34 A 1 1 0 0 0 57 35 A 1 1 0 0 0 58 36 A 1 1 0 0 0 59 35 A 1 1 0 0 0 58 34 z M 22 38 A 1 1 0 0 0 21 39 A 1 1 0 0 0 22 40 A 1 1 0 0 0 23 39 A 1 1 0 0 0 22 38 z M 58 38 A 1 1 0 0 0 57 39 A 1 1 0 0 0 58 40 A 1 1 0 0 0 59 39 A 1 1 0 0 0 58 38 z M 22 42 A 1 1 0 0 0 21 43 A 1 1 0 0 0 22 44 A 1 1 0 0 0 23 43 A 1 1 0 0 0 22 42 z M 58 42 A 1 1 0 0 0 57 43 A 1 1 0 0 0 58 44 A 1 1 0 0 0 59 43 A 1 1 0 0 0 58 42 z M 22 46 A 1 1 0 0 0 21 47 A 1 1 0 0 0 22 48 A 1 1 0 0 0 23 47 A 1 1 0 0 0 22 46 z M 64 48 C 55.178 48 48 55.178 48 64 C 48 72.822 55.178 80 64 80 C 72.822 80 80 72.822 80 64 C 80 55.178 72.822 48 64 48 z M 22 50 A 1 1 0 0 0 21 51 A 1 1 0 0 0 22 52 A 1 1 0 0 0 23 51 A 1 1 0 0 0 22 50 z M 64 50 C 71.72 50 78 56.28 78 64 C 78 71.72 71.72 78 64 78 C 56.28 78 50 71.72 50 64 C 50 56.28 56.28 50 64 50 z M 63.998047 53 C 63.446047 53 63 53.448 63 54 L 63 63.53125 L 57.359375 68.232422 C 56.935375 68.585422 56.876469 69.216625 57.230469 69.640625 C 57.428469 69.877625 57.713 70 58 70 C 58.226 70 58.453625 69.923578 58.640625 69.767578 L 65 64.46875 L 65 54 C 65 53.448 64.550047 53 63.998047 53 z M 22 54 A 1 1 0 0 0 21 55 A 1 1 0 0 0 22 56 A 1 1 0 0 0 23 55 A 1 1 0 0 0 22 54 z M 22 58 A 1 1 0 0 0 21 59 A 1 1 0 0 0 22 60 A 1 1 0 0 0 23 59 A 1 1 0 0 0 22 58 z M 22 62 A 1 1 0 0 0 21 63 A 1 1 0 0 0 22 64 A 1 1 0 0 0 23 63 A 1 1 0 0 0 22 62 z M 22 66 A 1 1 0 0 0 21 67 A 1 1 0 0 0 22 68 A 1 1 0 0 0 23 67 A 1 1 0 0 0 22 66 z M 26 66 A 1 1 0 0 0 25 67 A 1 1 0 0 0 26 68 A 1 1 0 0 0 27 67 A 1 1 0 0 0 26 66 z M 30 66 A 1 1 0 0 0 29 67 A 1 1 0 0 0 30 68 A 1 1 0 0 0 31 67 A 1 1 0 0 0 30 66 z M 34 66 A 1 1 0 0 0 33 67 A 1 1 0 0 0 34 68 A 1 1 0 0 0 35 67 A 1 1 0 0 0 34 66 z M 38 66 A 1 1 0 0 0 37 67 A 1 1 0 0 0 38 68 A 1 1 0 0 0 39 67 A 1 1 0 0 0 38 66 z M 42 66 A 1 1 0 0 0 41 67 A 1 1 0 0 0 42 68 A 1 1 0 0 0 43 67 A 1 1 0 0 0 42 66 z">
    </path>
</svg>